<?xml version="1.0" encoding="utf-8"?>
<!-- Generator: Adobe Illustrator 23.0.3, SVG Export Plug-In . SVG Version: 6.00 Build 0)  -->
<svg version="1.1" id="Layer_1" xmlns="http://www.w3.org/2000/svg" xmlns:xlink="http://www.w3.org/1999/xlink" x="0px" y="0px"
	 viewBox="0 0 555.4 341.1" style="enable-background:new 0 0 555.4 341.1;" xml:space="preserve">
<style type="text/css">
	.st0{fill:none;}
	.st1{fill:#C61A27;}
	.st2{fill:#B2B2B2;}
</style>
<g>
	<rect class="st0" width="555.4" height="341.1"/>
	<g>
		<g>
			<g>
				<g>
					<path class="st1" d="M416.1,132.9c9.4,9.3,16.3,22.1,13.9,36.2c-4.5,21.7-22.2,37.2-43.3,41.7c-1.8,0.4-12,2.1-19.9,2.1h-59
						l28.1-111.9l47.4-16.4l-23.5,93.8c17.7-0.2,29.5-13.6,28.6-25.9c-1-12.3-6.9-18.7-14.7-22.2c1.8-0.7,27.9-17.3,22.4-34.4
						c-5.7-17.2-31.8-14.9-46.9-10.9c-11.5,2.4-34.3,9.5-42,12.8L278.3,213h-45.1l24-96c-0.6,0-35.8,16-35.8,16l12-48.4
						c13.9-6.3,72.8-30.1,110.6-36.3c50.9-8.3,83.1,6.3,92.2,31.3C445.3,104.6,432.5,124,416.1,132.9z"/>
				</g>
			</g>
		</g>
		<path class="st1" d="M170.5,116.5l-9.7,38.8c-5,19.9-18.8,40.1-44.5,41l-12.1,48.1c4.4,0,25.1-2.3,43.5-9.6
			c29-12.1,51.3-33.5,59.3-67.6l20-80c-0.8,0.4-40.6,19.3-56.4,29L170.5,116.5z"/>
		<path class="st2" d="M188.2,45.7l-17.6,70.4c15.8-9.7,55.5-28.6,56.4-29l10.4-41.5H188.2z"/>
	</g>
	<rect x="80.8" class="st0" width="393.8" height="262.6"/>
	<g>
		<path d="M41.8,276.5h12c5.9,0,9.1,2.9,9.1,8.4c0,3.8-2.7,9.6-11.7,9.6h-9.1L39.5,307h-4.1L41.8,276.5z M42.9,291.1h9.2
			c4.4,0,6.8-2.6,6.8-6.2c0-3.8-2.3-5-5-5h-8.6L42.9,291.1z"/>
		<path d="M67.1,297.1c-0.1,0.6-0.1,1.3-0.1,1.9c0,3.4,2.8,5.4,5.7,5.4c3.2,0,5.4-1.5,6.4-4.2h3.6c-1.2,4.9-5.2,7.5-10,7.5
			c-7.3,0-9.4-5.1-9.4-8.9c0-8.5,5.3-14.3,11.4-14.3c6.5,0,9.4,3.5,9.4,9.8c0,1.2-0.2,2.3-0.3,2.9H67.1z M80.4,293.8
			c0.3-3.1-1.2-6.2-5.2-6.2c-4.3,0-6.6,2.8-7.7,6.2H80.4z"/>
		<path d="M90.3,284.9h3.4l-1.1,4.8h0.1c1.7-3,4.3-5.3,8-5.3c0.4,0,0.9-0.1,1.3,0l-0.9,3.9c-0.3,0-0.7,0-1.1,0c-0.9,0-1.3,0-2.2,0.2
			c-2,0.5-3.6,1.8-4.7,3.6c-1,1.4-1.5,3.5-1.8,5.2l-2.1,9.8h-3.6L90.3,284.9z"/>
		<path d="M108.2,288.1h-3.8l0.6-3.2h3.8c1.2-4.5,1.3-8.8,7.2-8.8c1,0,2.1,0.1,3,0.3l-0.6,3.1c-0.6-0.1-1.2-0.2-1.7-0.2
			c-3.6,0-3.4,2.9-4.3,5.6h4.2l-0.6,3.2h-4.3l-4.1,18.9h-3.6L108.2,288.1z"/>
		<path d="M120,297.1c-0.1,0.6-0.1,1.3-0.1,1.9c0,3.4,2.8,5.4,5.7,5.4c3.2,0,5.3-1.5,6.4-4.2h3.6c-1.2,4.9-5.2,7.5-10,7.5
			c-7.3,0-9.4-5.1-9.4-8.9c0-8.5,5.3-14.3,11.4-14.3c6.5,0,9.4,3.5,9.4,9.8c0,1.2-0.2,2.3-0.3,2.9H120z M133.3,293.8
			c0.3-3.1-1.2-6.2-5.2-6.2c-4.3,0-6.6,2.8-7.7,6.2H133.3z"/>
		<path d="M156.6,291.9c0-2.7-1.8-4.3-4.7-4.3c-5.6,0-8.6,5.6-8.6,10.4c0,3.4,1.4,6.3,5.5,6.3c3.1,0,5.4-1.8,6.5-4.5h3.6
			c-1.3,4.9-5,7.7-10.1,7.7c-6,0-9.1-3.6-9.1-9.5c0-7,4.3-13.6,12.3-13.6c5,0,8.1,2.4,8.3,7.5H156.6z"/>
		<path d="M171.2,284.9h4.4l-0.7,3.2h-4.4l-2.7,13c0,0.5-0.1,0.9-0.1,1.5c0,1.2,1.1,1.5,2.2,1.5c0.7,0,1.4-0.2,2.1-0.4l-0.6,3.3
			c-0.9,0.2-1.7,0.3-2.6,0.3c-2.7,0-5-0.8-5-3.6c0-0.6,0.1-1.2,0.2-1.8l2.9-13.7h-3.7l0.7-3.2h3.7l1.4-6.5h3.6L171.2,284.9z"/>
		<path d="M195.9,284.9h3.4l-0.8,3.3l0.1,0.1c1.9-2.3,4.7-3.9,7.7-3.9c2.8,0,4.9,1.1,5.6,4c1.7-2.4,4.6-4,7.6-4c3.1,0,6.2,1.4,6.2,5
			c0,1.3-0.3,3.2-0.6,4.4l-2.8,13.3h-3.6l3.1-14c0.2-0.7,0.3-1.8,0.3-2.4c0-1.7-1.5-3-3.4-3c-2.1,0-4.3,1.5-5.6,3
			c-1.2,1.3-1.7,3.1-2,5l-2.4,11.4h-3.6l2.7-12.6c0.4-1.7,0.7-3.4,0.7-3.9c0-1.8-1.1-2.9-3.1-2.9c-2,0-4.2,1.4-5.4,2.8
			c-1.5,1.5-1.9,2.8-2.4,5l-2.5,11.6h-3.6L195.9,284.9z"/>
		<path d="M241,284.4c5.9,0,9.2,3.3,9.2,9.2c0,7.2-4.5,14-12.2,14c-5.8,0-9.3-3.9-9.3-9.3C228.6,291.1,233.3,284.4,241,284.4z
			 M238.3,304.3c5.3,0,8.2-6.1,8.2-10.5c0-3.5-1.8-6.2-5.8-6.2c-5.6,0-8.5,6.1-8.5,10.7C232.3,301.9,234.4,304.3,238.3,304.3z"/>
		<path d="M257,284.9h3.4l-0.8,3.3l0.1,0.1c1.9-2.3,4.7-3.9,7.7-3.9c2.8,0,4.9,1.1,5.6,4c1.7-2.4,4.6-4,7.6-4c3.1,0,6.2,1.4,6.2,5
			c0,1.3-0.3,3.2-0.6,4.4l-2.8,13.3h-3.6l3.1-14c0.2-0.7,0.3-1.8,0.3-2.4c0-1.7-1.5-3-3.4-3c-2.1,0-4.3,1.5-5.6,3
			c-1.2,1.3-1.7,3.1-2.1,5l-2.4,11.4h-3.6l2.7-12.6c0.4-1.7,0.7-3.4,0.7-3.9c0-1.8-1.1-2.9-3.1-2.9c-2,0-4.2,1.4-5.4,2.8
			c-1.5,1.5-1.9,2.8-2.4,5l-2.5,11.6h-3.6L257,284.9z"/>
		<path d="M293.1,297.1c-0.1,0.6-0.1,1.3-0.1,1.9c0,3.4,2.8,5.4,5.7,5.4c3.2,0,5.4-1.5,6.4-4.2h3.6c-1.2,4.9-5.2,7.5-10,7.5
			c-7.3,0-9.4-5.1-9.4-8.9c0-8.5,5.3-14.3,11.4-14.3c6.5,0,9.4,3.5,9.4,9.8c0,1.2-0.2,2.3-0.3,2.9H293.1z M306.5,293.8
			c0.3-3.1-1.2-6.2-5.2-6.2c-4.3,0-6.6,2.8-7.7,6.2H306.5z"/>
		<path d="M316.4,284.9h3.5l-0.7,3.3h0.1c1.8-2.5,4.8-3.8,7.9-3.8c4.2,0,6.2,1.8,6.2,5.7c0,0.9-0.3,2.6-0.6,4.3L330,307h-3.6
			l2.8-12.9c0.2-0.8,0.5-2.7,0.5-3.4c0-2.1-1.7-3.1-3.9-3.1c-2,0-4.1,1.1-5.5,2.6c-1.3,1.1-2,2.9-2.4,4.6l-2.6,12.2h-3.6
			L316.4,284.9z"/>
		<path d="M345.2,284.9h4.4l-0.7,3.2h-4.4l-2.7,13c0,0.5-0.1,0.9-0.1,1.5c0,1.2,1.1,1.5,2.2,1.5c0.7,0,1.4-0.2,2.1-0.4l-0.6,3.3
			c-0.8,0.2-1.7,0.3-2.6,0.3c-2.7,0-5-0.8-5-3.6c0-0.6,0.1-1.2,0.2-1.8l2.9-13.7h-3.7l0.7-3.2h3.7l1.4-6.5h3.6L345.2,284.9z"/>
		<path d="M365.7,291.4c0.2-2.5-2.1-3.8-4.6-3.8c-2.2,0-4.7,0.6-4.7,2.8c0,2.1,2.9,2.9,5.8,4.1c2.9,1.2,5.9,2.7,5.9,6.2
			c0,4.9-4.8,6.8-9,6.8c-5,0-9-1.8-8.9-7.5h3.6c-0.2,3.3,2.6,4.3,5.7,4.3c2.4,0,5.1-0.9,5.1-3.4c0-2.1-2.9-3-5.8-4.2
			c-3-1.2-5.9-2.7-5.9-6c0-4.1,4.1-6.4,8.2-6.4c4.1,0,8.4,1.8,8.4,7H365.7z"/>
		<path d="M372.8,302.3h4.8c-1.1,4.8-1.1,10.5-7.1,11l0.4-2.1c2.3-0.3,2.8-2.3,3.3-4.2h-2.4L372.8,302.3z"/>
		<path d="M395.4,291.6c0.7-4.9,4.9-7.2,9.6-7.2c4.3,0,8.1,1.1,8.1,5.6c0,1.2-0.4,2.8-0.7,4l-1.4,6c-0.2,0.9-0.6,2.1-0.6,3.2
			c0,1,0.5,1.4,1.1,1.4c0.3,0,0.8-0.2,1.2-0.3L412,307c-0.6,0.3-1.6,0.5-2.2,0.5c-2,0-3.1-1.2-2.9-3.1l-0.1-0.1
			c-1.5,2-3.7,3.2-7.4,3.2c-3.7,0-6.8-1.7-6.8-6.3c0-6.4,6.3-6.8,11.2-7.3c3.9-0.3,5.6-0.6,5.6-3.5c0-2.4-2.5-2.9-4.5-2.9
			c-2.8,0-5.5,1.1-6,4H395.4z M400.3,304.3c2.8,0,4.9-1,6.2-2.9c1.2-1.7,1.4-3.6,1.9-5.7h-0.1c-1.6,0.9-4.5,1.2-7.1,1.5
			c-2.6,0.4-4.9,1.2-4.9,4C396.3,303.3,398.3,304.3,400.3,304.3z"/>
		<path d="M422.5,276.5h3.6l-6.4,30.6h-3.6L422.5,276.5z"/>
		<path d="M447,307h-3.9l-1.1-17.2h-0.1L434,307h-3.9l-2.6-22.1h3.8l1.4,17.6h0.1l8-17.6h4.1l1.1,17.6h0.1l8.4-17.6h3.9L447,307z"/>
		<path d="M460.6,291.6c0.7-4.9,4.9-7.2,9.6-7.2c4.3,0,8.1,1.1,8.1,5.6c0,1.2-0.4,2.8-0.7,4l-1.4,6c-0.2,0.9-0.6,2.1-0.6,3.2
			c0,1,0.5,1.4,1.1,1.4c0.3,0,0.8-0.2,1.2-0.3l-0.6,2.7c-0.6,0.3-1.6,0.5-2.2,0.5c-2,0-3.1-1.2-2.9-3.1l-0.1-0.1
			c-1.5,2-3.7,3.2-7.4,3.2c-3.7,0-6.8-1.7-6.8-6.3c0-6.4,6.3-6.8,11.2-7.3c3.9-0.3,5.6-0.6,5.6-3.5c0-2.4-2.5-2.9-4.5-2.9
			c-2.8,0-5.5,1.1-6,4H460.6z M465.5,304.3c2.8,0,4.9-1,6.2-2.9c1.2-1.7,1.4-3.6,1.9-5.7h-0.1c-1.6,0.9-4.4,1.2-7.1,1.5
			c-2.6,0.4-4.9,1.2-4.9,4C461.5,303.3,463.4,304.3,465.5,304.3z"/>
		<path d="M487.5,310.8c-1.8,2.9-3.4,5.2-7.1,5.2c-0.9,0-1.8-0.2-2.5-0.6l0.6-3c0.6,0.3,1.4,0.6,2.1,0.6c1.6,0,2.6-1,3.4-2.4
			l2.2-3.7l-3.9-22.1h3.9l2.6,17.6h0.1l9.3-17.6h4L487.5,310.8z"/>
		<path d="M516.3,291.4c0.2-2.5-2.1-3.8-4.6-3.8c-2.2,0-4.7,0.6-4.7,2.8c0,2.1,2.9,2.9,5.8,4.1c2.9,1.2,5.9,2.7,5.9,6.2
			c0,4.9-4.8,6.8-9,6.8c-5.1,0-9-1.8-8.9-7.5h3.6c-0.2,3.3,2.6,4.3,5.6,4.3c2.4,0,5.1-0.9,5.1-3.4c0-2.1-2.9-3-5.8-4.2
			c-3-1.2-5.9-2.7-5.9-6c0-4.1,4.1-6.4,8.2-6.4c4.1,0,8.4,1.8,8.4,7H516.3z"/>
	</g>
</g>
</svg>
